<svg xmlns="http://www.w3.org/2000/svg" viewBox="0 0 15.78 15.78"><title>instagram</title><circle cx="7.89" cy="7.89" r="3.21" style="fill:#333"/><path d="M15.73,4a5.33,5.33,0,0,0-.33-1.79,3,3,0,0,0-.72-1.11A3,3,0,0,0,13.57.39,5.33,5.33,0,0,0,11.78.06C10.77,0,10.46,0,7.89,0S5,0,4,.06A5.32,5.32,0,0,0,2.22.39a3,3,0,0,0-1.11.72A3,3,0,0,0,.39,2.21,5.33,5.33,0,0,0,.06,4C0,5,0,5.32,0,7.89s0,2.87.06,3.89a5.33,5.33,0,0,0,.33,1.79,3,3,0,0,0,.72,1.11,3,3,0,0,0,1.11.72A5.32,5.32,0,0,0,4,15.73c1,0,1.32.06,3.89.06s2.88,0,3.89-.06a5.32,5.32,0,0,0,1.79-.33,3.19,3.19,0,0,0,1.83-1.83,5.33,5.33,0,0,0,.33-1.79c0-1,.06-1.32.06-3.89S15.77,5,15.73,4ZM7.89,12.83a4.94,4.94,0,1,1,4.94-4.94A4.94,4.94,0,0,1,7.89,12.83ZM13,3.91a1.16,1.16,0,1,1,1.16-1.16A1.16,1.16,0,0,1,13,3.91Z" style="fill:#333"/></svg>